<svg width="1440" height="781" viewBox="0 0 1440 781" fill="none" xmlns="http://www.w3.org/2000/svg">
<mask id="mask0_2782_2687" style="mask-type:alpha" maskUnits="userSpaceOnUse" x="-1" y="-1" width="1441" height="783">
<rect x="1439.99" y="781" width="1440" height="781" transform="rotate(-180 1439.99 781)" fill="#C4C4C4"/>
</mask>
<g mask="url(#mask0_2782_2687)">
<rect x="1439.99" y="1264.34" width="1440" height="1044.54" transform="rotate(-180 1439.99 1264.34)" fill="url(#paint0_linear_2782_2687)"/>
<g filter="url(#filter0_f_2782_2687)">
<path d="M14.994 146.291C14.994 2.26245 577.823 -353.159 712.728 -353.159C847.632 -353.159 956.994 -236.401 956.994 -92.3731C956.994 51.6552 847.632 168.413 712.728 168.413C577.823 168.413 14.994 290.319 14.994 146.291Z" fill="#00D4FF" fill-opacity="0.2"/>
</g>
<g opacity="0.4" filter="url(#filter1_f_2782_2687)">
<path d="M1142.02 226.401C1323.68 214.935 1792.03 -128.298 1802.77 65.5233C1813.52 259.345 1362.6 916.824 1180.94 928.29C999.281 939.756 843.305 791.928 832.558 598.107C821.811 404.285 960.364 237.867 1142.02 226.401Z" fill="#1F4EF5"/>
</g>
<g opacity="0.4" filter="url(#filter2_f_2782_2687)">
<path d="M396.741 528.003C411.182 454.956 206.787 226.446 357.466 247.042C508.145 267.639 956.839 529.543 942.398 602.59C927.957 675.638 794.102 718.157 643.423 697.56C492.744 676.964 382.301 601.05 396.741 528.003Z" fill="#F4B43E"/>
</g>
</g>
<defs>
<filter id="filter0_f_2782_2687" x="-385.006" y="-753.159" width="1742" height="1369.75" filterUnits="userSpaceOnUse" color-interpolation-filters="sRGB">
<feFlood flood-opacity="0" result="BackgroundImageFix"/>
<feBlend mode="normal" in="SourceGraphic" in2="BackgroundImageFix" result="shape"/>
<feGaussianBlur stdDeviation="200" result="effect1_foregroundBlur_2782_2687"/>
</filter>
<filter id="filter1_f_2782_2687" x="431.973" y="-393.67" width="1770.99" height="1722.58" filterUnits="userSpaceOnUse" color-interpolation-filters="sRGB">
<feFlood flood-opacity="0" result="BackgroundImageFix"/>
<feBlend mode="normal" in="SourceGraphic" in2="BackgroundImageFix" result="shape"/>
<feGaussianBlur stdDeviation="200" result="effect1_foregroundBlur_2782_2687"/>
</filter>
<filter id="filter2_f_2782_2687" x="-98.2278" y="-154.265" width="1440.97" height="1257.02" filterUnits="userSpaceOnUse" color-interpolation-filters="sRGB">
<feFlood flood-opacity="0" result="BackgroundImageFix"/>
<feBlend mode="normal" in="SourceGraphic" in2="BackgroundImageFix" result="shape"/>
<feGaussianBlur stdDeviation="200" result="effect1_foregroundBlur_2782_2687"/>
</filter>
<linearGradient id="paint0_linear_2782_2687" x1="2901.98" y1="1489.47" x2="2735.46" y2="2304.89" gradientUnits="userSpaceOnUse">
<stop stop-color="#CAB7FF"/>
<stop offset="1" stop-color="white" stop-opacity="0"/>
</linearGradient>
</defs>
</svg>
